<mxfile host="65bd71144e">
    <diagram name="Seite-1" id="fXQHdAFhGvOPGxnNgy07">
        <mxGraphModel dx="534" dy="513" grid="1" gridSize="10" guides="1" tooltips="1" connect="1" arrows="1" fold="1" page="1" pageScale="1" pageWidth="827" pageHeight="1169" math="0" shadow="0">
            <root>
                <mxCell id="0"/>
                <mxCell id="1" parent="0"/>
                <mxCell id="mGpiZLNvYWKPc89Ua1DT-3" value="" style="edgeStyle=orthogonalEdgeStyle;rounded=0;orthogonalLoop=1;jettySize=auto;html=1;" parent="1" source="mGpiZLNvYWKPc89Ua1DT-1" target="mGpiZLNvYWKPc89Ua1DT-2" edge="1">
                    <mxGeometry relative="1" as="geometry"/>
                </mxCell>
                <mxCell id="mGpiZLNvYWKPc89Ua1DT-1" value="&lt;font style=&quot;font-size: 20px;&quot;&gt;Start&lt;/font&gt;" style="ellipse;whiteSpace=wrap;html=1;aspect=fixed;" parent="1" vertex="1">
                    <mxGeometry x="320" y="210" width="80" height="80" as="geometry"/>
                </mxCell>
                <mxCell id="mGpiZLNvYWKPc89Ua1DT-5" value="" style="edgeStyle=orthogonalEdgeStyle;rounded=0;orthogonalLoop=1;jettySize=auto;html=1;" parent="1" source="mGpiZLNvYWKPc89Ua1DT-2" target="mGpiZLNvYWKPc89Ua1DT-4" edge="1">
                    <mxGeometry relative="1" as="geometry"/>
                </mxCell>
                <mxCell id="mGpiZLNvYWKPc89Ua1DT-2" value="&lt;font style=&quot;font-size: 20px;&quot;&gt;Print: Hello!&lt;/font&gt;" style="rounded=1;whiteSpace=wrap;html=1;" parent="1" vertex="1">
                    <mxGeometry x="300" y="350" width="120" height="60" as="geometry"/>
                </mxCell>
                <mxCell id="mGpiZLNvYWKPc89Ua1DT-4" value="&lt;font style=&quot;font-size: 20px;&quot;&gt;End&lt;/font&gt;" style="ellipse;whiteSpace=wrap;html=1;rounded=1;" parent="1" vertex="1">
                    <mxGeometry x="320" y="450" width="80" height="80" as="geometry"/>
                </mxCell>
                <mxCell id="mGpiZLNvYWKPc89Ua1DT-6" value="this process shall be written in Python!" style="shape=document;whiteSpace=wrap;html=1;boundedLbl=1;" parent="1" vertex="1">
                    <mxGeometry x="110" y="340" width="120" height="80" as="geometry"/>
                </mxCell>
                <mxCell id="mGpiZLNvYWKPc89Ua1DT-7" value="&lt;font style=&quot;font-size: 17px;&quot;&gt;Pseudo Code&lt;/font&gt;&lt;div&gt;&lt;font style=&quot;font-size: 17px;&quot;&gt;&lt;br&gt;&lt;/font&gt;&lt;/div&gt;&lt;div&gt;&lt;font style=&quot;font-size: 17px;&quot;&gt;---------------&lt;/font&gt;&lt;/div&gt;&lt;div&gt;&lt;br&gt;&lt;/div&gt;&lt;div&gt;START&lt;/div&gt;&lt;div&gt;&lt;span style=&quot;white-space: pre;&quot;&gt;&#x9;&lt;/span&gt;PRINT &quot;Hello World!&quot;&lt;/div&gt;&lt;div&gt;END&lt;/div&gt;" style="text;html=1;align=left;verticalAlign=middle;resizable=0;points=[];autosize=1;strokeColor=none;fillColor=none;" parent="1" vertex="1">
                    <mxGeometry x="480" y="310" width="160" height="130" as="geometry"/>
                </mxCell>
            </root>
        </mxGraphModel>
    </diagram>
</mxfile>